<mxfile host="app.diagrams.net" modified="2023-09-20T13:35:21.946Z" agent="Mozilla/5.0 (Windows NT 10.0; Win64; x64) AppleWebKit/537.36 (KHTML, like Gecko) Chrome/117.0.0.0 Safari/537.36" version="21.6.5" etag="x4eJdrU5XHSOXzKJ3smr" type="github">
  <diagram name="PÃ¡gina-1" id="SZls-IWfivDJKrMCGArT">
    <mxGraphModel>
      <root>
        <mxCell id="0" />
        <mxCell id="1" parent="0" />
      </root>
    </mxGraphModel>
  </diagram>
</mxfile>
